<svg width="1280" height="1280" viewBox="0 0 1280 1280" xmlns="http://www.w3.org/2000/svg">
<g stroke="rgb(0, 0, 0)" stroke-width="0.5" stroke-linecap="round" stroke-linejoin="round" fill="transparent">
<path d="M663,622 L672,595 L648,612 L640,640 Z M663,657 L640,640 L648,667 L672,684 Z M601,612 L578,595 L587,622 L610,640 Z M601,612 L610,584 L619,612 L610,640 Z M601,667 L610,640 L619,667 L610,695 Z M601,667 L610,640 L587,657 L578,684 Z M634,567 L663,567 L640,584 L610,584 Z M634,567 L663,567 L640,550 L610,550 Z M587,567 L563,550 L554,522 L578,539 Z M587,567 L558,567 L534,550 L563,550 Z M663,567 L672,539 L696,522 L687,550 Z M663,567 L692,567 L716,550 L687,550 Z M739,567 L716,550 L725,578 L748,595 Z M739,567 L748,539 L757,567 L748,595 Z M716,495 L725,467 L748,450 L739,478 Z M748,505 L757,478 L748,450 L739,478 Z M748,539 L777,539 L801,522 L772,522 Z M696,522 L672,505 L663,478 L687,495 Z M687,495 L716,495 L692,478 L663,478 Z M610,495 L640,495 L663,478 L634,478 Z M610,550 L619,522 L610,495 L601,522 Z M578,505 L587,478 L563,495 L554,522 Z M587,478 L558,478 L534,495 L563,495 Z M578,450 L587,422 L610,405 L601,433 Z M578,450 L549,450 L525,433 L554,433 Z M610,460 L619,433 L610,405 L601,433 Z M534,495 L511,478 L502,450 L525,467 Z M502,539 L473,539 L449,522 L478,522 Z M502,505 L511,478 L502,450 L493,478 Z M502,505 L473,505 L449,522 L478,522 Z M464,478 L473,450 L449,467 L440,495 Z M449,522 L420,522 L396,539 L426,539 Z M440,495 L411,495 L387,478 L417,478 Z M440,550 L449,522 L426,539 L417,567 Z M396,539 L373,522 L364,495 L387,512 Z M364,550 L373,522 L364,495 L355,522 Z M364,550 L335,550 L311,567 L340,567 Z M378,595 L387,567 L364,584 L355,612 Z M449,612 L426,595 L417,567 L440,584 Z M502,595 L511,567 L502,539 L493,567 Z M502,595 L473,595 L449,612 L478,612 Z M525,578 L534,550 L511,567 L502,595 Z M493,622 L502,595 L478,612 L469,640 Z M516,640 L525,612 L534,640 L525,667 Z M493,657 L469,640 L478,667 L502,684 Z M502,684 L493,712 L502,740 L511,712 Z M502,684 L473,684 L449,667 L478,667 Z M525,701 L502,684 L511,712 L534,729 Z M449,667 L440,695 L417,712 L426,684 Z M440,729 L417,712 L426,740 L449,757 Z M378,684 L355,667 L364,695 L387,712 Z M396,740 L387,767 L364,784 L373,757 Z M364,729 L355,757 L364,784 L373,757 Z M364,729 L335,729 L311,712 L340,712 Z M387,657 L378,684 L387,712 L396,684 Z M440,640 L411,640 L387,657 L417,657 Z M440,640 L411,640 L387,622 L417,622 Z M387,622 L396,595 L387,567 L378,595 Z M355,612 L326,612 L302,595 L331,595 Z M355,667 L326,667 L302,684 L331,684 Z M335,640 L311,622 L302,595 L326,612 Z M335,640 L326,667 L302,684 L311,657 Z M311,712 L302,740 L279,757 L288,729 Z M279,701 L270,729 L279,757 L288,729 Z M279,701 L250,701 L226,684 L255,684 Z M279,667 L250,667 L226,684 L255,684 Z M288,640 L279,667 L270,640 L279,612 Z M226,684 L203,667 L194,640 L217,657 Z M226,684 L197,684 L174,667 L203,667 Z M217,712 L188,712 L165,729 L194,729 Z M174,667 L165,695 L141,712 L150,684 Z M165,729 L156,757 L165,784 L174,757 Z M132,740 L103,740 L79,757 L108,757 Z M150,684 L141,712 L132,684 L141,657 Z M112,712 L88,695 L79,667 L103,684 Z M112,712 L103,740 L79,757 L88,729 Z M79,757 L50,757 L27,774 L56,774 Z M79,757 L50,757 L27,740 L56,740 Z M88,784 L79,812 L56,829 L65,801 Z M141,801 L132,829 L141,857 L150,829 Z M141,801 L112,801 L88,784 L117,784 Z M79,846 L56,829 L65,857 L88,874 Z M103,919 L79,902 L88,929 L112,946 Z M132,919 L103,919 L79,902 L108,902 Z M141,857 L112,857 L88,874 L117,874 Z M165,874 L156,902 L165,929 L174,902 Z M165,874 L156,902 L132,919 L141,891 Z M217,857 L188,857 L165,874 L194,874 Z M241,874 L217,857 L226,884 L250,902 Z M217,801 L188,801 L165,784 L194,784 Z M197,829 L188,857 L165,874 L174,846 Z M279,812 L250,812 L226,829 L255,829 Z M279,846 L270,874 L279,902 L288,874 Z M279,846 L250,846 L226,829 L255,829 Z M302,919 L293,946 L302,974 L311,946 Z M270,929 L241,929 L217,946 L246,946 Z M250,902 L241,929 L217,946 L226,919 Z M217,946 L188,946 L165,963 L194,963 Z M217,946 L188,946 L165,929 L194,929 Z M226,974 L217,1002 L194,1019 L203,991 Z M279,991 L270,1019 L279,1046 L288,1019 Z M279,991 L250,991 L226,974 L255,974 Z M217,1036 L194,1019 L203,1046 L226,1064 Z M156,991 L132,974 L141,1002 L165,1019 Z M165,963 L156,991 L165,1019 L174,991 Z M226,1064 L197,1064 L174,1046 L203,1046 Z M279,1046 L250,1046 L226,1064 L255,1064 Z M279,1081 L270,1108 L279,1136 L288,1108 Z M279,1081 L250,1081 L226,1064 L255,1064 Z M241,1108 L217,1091 L226,1119 L250,1136 Z M302,1153 L279,1136 L288,1164 L311,1181 Z M364,1164 L335,1164 L311,1181 L340,1181 Z M364,1108 L355,1136 L364,1164 L373,1136 Z M364,1108 L335,1108 L311,1091 L340,1091 Z M387,1091 L411,1108 L420,1136 L396,1119 Z M311,1091 L302,1119 L279,1136 L288,1108 Z M355,1046 L326,1046 L302,1064 L331,1064 Z M378,1064 L355,1046 L364,1074 L387,1091 Z M335,1019 L326,1046 L302,1064 L311,1036 Z M326,991 L302,974 L311,1002 L335,1019 Z M355,991 L326,991 L302,974 L331,974 Z M387,946 L378,974 L387,1002 L396,974 Z M387,946 L378,974 L355,991 L364,963 Z M355,902 L326,902 L302,919 L331,919 Z M378,919 L355,902 L364,929 L387,946 Z M364,874 L335,874 L311,857 L340,857 Z M311,857 L302,884 L279,902 L288,874 Z M355,846 L331,829 L340,857 L364,874 Z M364,784 L355,812 L331,829 L340,801 Z M364,784 L335,784 L311,801 L340,801 Z M302,774 L279,757 L288,784 L311,801 Z M279,757 L270,784 L279,812 L288,784 Z M250,757 L241,784 L217,801 L226,774 Z M241,729 L217,712 L226,740 L250,757 Z M387,801 L378,829 L387,857 L396,829 Z M440,784 L411,784 L387,801 L417,801 Z M464,801 L440,784 L449,812 L473,829 Z M449,757 L420,757 L396,740 L426,740 Z M502,740 L473,740 L449,757 L478,757 Z M502,774 L493,801 L502,829 L511,801 Z M502,774 L473,774 L449,757 L478,757 Z M525,846 L516,874 L525,902 L534,874 Z M493,857 L464,857 L440,874 L469,874 Z M473,829 L464,857 L440,874 L449,846 Z M440,874 L411,874 L387,891 L417,891 Z M440,874 L411,874 L387,857 L417,857 Z M449,902 L440,929 L417,946 L426,919 Z M502,919 L493,946 L502,974 L511,946 Z M502,919 L473,919 L449,902 L478,902 Z M525,902 L549,919 L558,946 L534,929 Z M440,963 L417,946 L426,974 L449,991 Z M387,891 L378,919 L387,946 L396,919 Z M387,1036 L378,1064 L387,1091 L396,1064 Z M440,1019 L464,1036 L473,1064 L449,1046 Z M440,1019 L411,1019 L387,1036 L417,1036 Z M440,1019 L411,1019 L387,1002 L417,1002 Z M469,1019 L440,1019 L464,1036 L493,1036 Z M502,974 L473,974 L449,991 L478,991 Z M525,991 L516,1019 L525,1046 L534,1019 Z M525,991 L516,1019 L493,1036 L502,1008 Z M578,974 L601,991 L610,1019 L587,1002 Z M578,974 L549,974 L525,991 L554,991 Z M610,929 L640,929 L663,946 L634,946 Z M610,963 L601,991 L610,1019 L619,991 Z M558,946 L549,974 L525,991 L534,963 Z M634,946 L663,946 L640,963 L610,963 Z M672,974 L663,1002 L640,1019 L648,991 Z M672,974 L701,974 L725,991 L696,991 Z M692,946 L716,963 L725,991 L701,974 Z M725,902 L716,929 L692,946 L701,919 Z M748,919 L739,946 L748,974 L757,946 Z M696,902 L725,902 L701,919 L672,919 Z M672,829 L663,857 L640,874 L648,846 Z M672,829 L701,829 L725,846 L696,846 Z M725,846 L716,874 L725,902 L734,874 Z M716,784 L739,801 L748,829 L725,812 Z M687,784 L716,784 L692,801 L663,801 Z M696,757 L687,784 L663,801 L672,774 Z M663,712 L687,729 L696,757 L672,740 Z M663,712 L692,712 L716,729 L687,729 Z M610,729 L601,757 L610,784 L619,757 Z M610,784 L640,784 L663,801 L634,801 Z M587,801 L558,801 L534,784 L563,784 Z M634,801 L663,801 L640,819 L610,819 Z M610,819 L601,846 L610,874 L619,846 Z M640,874 L663,891 L672,919 L648,902 Z M610,874 L601,902 L610,929 L619,902 Z M610,874 L601,902 L578,919 L587,891 Z M578,829 L601,846 L610,874 L587,857 Z M578,829 L549,829 L525,846 L554,846 Z M554,902 L525,902 L549,919 L578,919 Z M534,784 L525,812 L502,829 L511,801 Z M578,774 L554,757 L563,784 L587,801 Z M587,712 L578,740 L554,757 L563,729 Z M587,712 L558,712 L534,729 L563,729 Z M578,684 L549,684 L525,667 L554,667 Z M578,595 L549,595 L525,612 L554,612 Z M634,712 L663,712 L640,729 L610,729 Z M634,712 L663,712 L640,695 L610,695 Z M748,684 L757,657 L781,640 L772,667 Z M748,684 L777,684 L801,667 L772,667 Z M739,712 L748,684 L757,712 L748,740 Z M739,712 L748,684 L725,701 L716,729 Z M801,667 L824,684 L833,712 L810,695 Z M810,640 L839,640 L862,622 L833,622 Z M810,640 L839,640 L862,657 L833,657 Z M801,612 L810,584 L833,567 L824,595 Z M853,684 L862,657 L871,684 L862,712 Z M862,712 L871,684 L895,667 L886,695 Z M886,729 L915,729 L939,712 L909,712 Z M853,740 L877,757 L886,784 L862,767 Z M801,757 L810,729 L833,712 L824,740 Z M801,757 L830,757 L853,740 L824,740 Z M810,784 L801,812 L777,829 L786,801 Z M810,784 L839,784 L862,801 L833,801 Z M772,757 L801,757 L777,774 L748,774 Z M862,801 L853,829 L862,857 L871,829 Z M886,784 L909,801 L918,829 L895,812 Z M886,784 L915,784 L939,801 L909,801 Z M833,857 L862,857 L839,874 L810,874 Z M777,829 L801,846 L810,874 L786,857 Z M748,774 L739,801 L748,829 L757,801 Z M810,874 L839,874 L862,891 L833,891 Z M757,857 L748,884 L725,902 L734,874 Z M757,857 L786,857 L810,874 L781,874 Z M772,902 L801,902 L777,919 L748,919 Z M801,902 L824,919 L833,946 L810,929 Z M833,946 L824,974 L801,991 L810,963 Z M862,946 L886,963 L895,991 L871,974 Z M862,946 L853,974 L862,1002 L871,974 Z M862,891 L853,919 L862,946 L871,919 Z M886,874 L915,874 L939,857 L909,857 Z M895,902 L886,929 L862,946 L871,919 Z M895,902 L924,902 L948,919 L918,919 Z M895,846 L886,874 L909,857 L918,829 Z M939,857 L962,874 L971,902 L948,884 Z M939,801 L948,774 L971,757 L962,784 Z M971,812 L1000,812 L1024,829 L995,829 Z M971,846 L962,874 L971,902 L980,874 Z M971,846 L1000,846 L1024,829 L995,829 Z M1009,874 L1000,902 L1024,884 L1033,857 Z M1033,857 L1062,857 L1085,874 L1056,874 Z M1033,801 L1062,801 L1085,784 L1056,784 Z M1053,829 L1076,846 L1085,874 L1062,857 Z M1053,829 L1062,801 L1085,784 L1076,812 Z M1085,784 L1094,757 L1118,740 L1109,767 Z M1076,757 L1085,729 L1094,757 L1085,784 Z M1109,801 L1138,801 L1162,784 L1132,784 Z M1033,712 L1062,712 L1085,729 L1056,729 Z M1076,667 L1100,684 L1109,712 L1085,695 Z M1100,684 L1109,657 L1118,684 L1109,712 Z M1024,684 L1033,657 L1056,640 L1047,667 Z M1024,684 L1053,684 L1076,667 L1047,667 Z M1024,595 L1047,612 L1056,640 L1033,622 Z M1024,595 L1053,595 L1076,612 L1047,612 Z M971,612 L1000,612 L1024,595 L995,595 Z M971,667 L1000,667 L1024,684 L995,684 Z M962,640 L971,612 L980,640 L971,667 Z M971,701 L1000,701 L1024,684 L995,684 Z M962,729 L971,701 L980,729 L971,757 Z M1000,757 L1024,774 L1033,801 L1009,784 Z M1000,757 L1009,729 L1033,712 L1024,740 Z M962,784 L971,757 L980,784 L971,812 Z M939,712 L962,729 L971,757 L948,740 Z M895,667 L924,667 L948,684 L918,684 Z M915,640 L939,657 L948,684 L924,667 Z M915,640 L924,612 L948,595 L939,622 Z M895,612 L924,612 L948,595 L918,595 Z M862,567 L886,584 L895,612 L871,595 Z M853,539 L862,512 L886,495 L877,522 Z M886,550 L915,550 L939,567 L909,567 Z M853,595 L862,567 L871,595 L862,622 Z M801,522 L824,539 L833,567 L810,550 Z M801,522 L830,522 L853,539 L824,539 Z M748,595 L772,612 L781,640 L757,622 Z M748,595 L777,595 L801,612 L772,612 Z M716,640 L725,612 L734,640 L725,667 Z M696,612 L725,612 L701,595 L672,595 Z M696,667 L725,667 L701,684 L672,684 Z M810,495 L786,478 L777,450 L801,467 Z M810,495 L839,495 L862,478 L833,478 Z M772,522 L801,522 L777,505 L748,505 Z M862,478 L871,450 L862,422 L853,450 Z M886,495 L895,467 L918,450 L909,478 Z M886,495 L915,495 L939,478 L909,478 Z M877,522 L886,495 L895,522 L886,550 Z M939,478 L962,495 L971,522 L948,505 Z M962,495 L971,467 L980,495 L971,522 Z M939,422 L948,395 L971,377 L962,405 Z M971,433 L980,405 L971,377 L962,405 Z M971,433 L1000,433 L1024,450 L995,450 Z M971,467 L1000,467 L1024,450 L995,450 Z M895,433 L918,450 L909,422 L886,405 Z M886,405 L915,405 L939,422 L909,422 Z M833,422 L862,422 L839,405 L810,405 Z M810,405 L839,405 L862,388 L833,388 Z M777,450 L786,422 L810,405 L801,433 Z M725,433 L734,405 L725,377 L716,405 Z M757,422 L734,405 L725,377 L748,395 Z M757,422 L786,422 L810,405 L781,405 Z M725,377 L701,360 L692,333 L716,350 Z M748,360 L757,333 L748,305 L739,333 Z M696,377 L725,377 L701,360 L672,360 Z M640,405 L648,377 L672,360 L663,388 Z M610,405 L587,388 L578,360 L601,377 Z M610,405 L619,377 L610,350 L601,377 Z M610,350 L640,350 L663,333 L634,333 Z M634,333 L663,333 L640,316 L610,316 Z M672,305 L648,288 L639,260 L663,277 Z M672,305 L701,305 L725,288 L696,288 Z M692,333 L701,305 L725,288 L716,316 Z M725,288 L734,260 L725,233 L716,260 Z M725,288 L734,260 L757,243 L748,271 Z M748,305 L777,305 L801,288 L772,288 Z M696,233 L725,233 L701,215 L672,215 Z M748,215 L725,198 L716,171 L739,188 Z M748,215 L757,188 L748,160 L739,188 Z M663,188 L672,160 L696,143 L687,171 Z M663,188 L692,188 L716,171 L687,171 Z M696,143 L672,126 L663,98 L687,115 Z M687,115 L716,115 L692,98 L663,98 Z M610,115 L639,115 L663,98 L634,98 Z M610,171 L619,143 L610,115 L601,143 Z M587,188 L563,171 L554,143 L578,160 Z M587,188 L558,188 L534,171 L563,171 Z M634,188 L663,188 L639,171 L610,171 Z M610,205 L639,205 L663,188 L634,188 Z M639,260 L648,233 L672,215 L663,243 Z M610,260 L587,243 L578,215 L601,233 Z M610,260 L619,233 L610,205 L601,233 Z M610,316 L619,288 L610,260 L601,288 Z M578,305 L587,277 L610,260 L601,288 Z M578,305 L549,305 L525,288 L554,288 Z M558,333 L534,316 L525,288 L549,305 Z M525,288 L502,271 L493,243 L516,260 Z M525,288 L534,260 L525,233 L516,260 Z M502,305 L473,305 L449,288 L478,288 Z M554,233 L525,233 L549,215 L578,215 Z M554,143 L563,115 L587,98 L578,126 Z M563,115 L534,115 L558,98 L587,98 Z M534,115 L511,98 L502,71 L525,88 Z M502,126 L511,98 L502,71 L493,98 Z M478,143 L449,143 L473,126 L502,126 Z M440,115 L449,88 L473,71 L464,98 Z M440,115 L411,115 L387,98 L417,98 Z M420,143 L396,126 L387,98 L411,115 Z M387,188 L396,160 L420,143 L411,171 Z M364,171 L373,143 L364,115 L355,143 Z M364,171 L335,171 L311,188 L340,188 Z M378,215 L387,188 L364,205 L355,233 Z M417,188 L387,188 L411,171 L440,171 Z M440,260 L449,233 L473,215 L464,243 Z M440,260 L411,260 L387,277 L417,277 Z M440,260 L411,260 L387,243 L417,243 Z M387,243 L396,215 L387,188 L378,215 Z M440,316 L449,288 L426,305 L417,333 Z M387,333 L364,316 L355,288 L378,305 Z M387,333 L396,305 L387,277 L378,305 Z M378,360 L387,333 L364,350 L355,377 Z M387,388 L396,360 L387,333 L378,360 Z M355,377 L326,377 L302,360 L331,360 Z M364,405 L335,405 L311,422 L340,422 Z M302,360 L311,333 L302,305 L293,333 Z M293,333 L302,305 L279,322 L270,350 Z M355,288 L326,288 L302,305 L331,305 Z M326,288 L335,260 L311,277 L302,305 Z M335,260 L311,243 L302,215 L326,233 Z M279,233 L250,233 L226,215 L255,215 Z M279,288 L288,260 L279,233 L270,260 Z M279,288 L250,288 L226,305 L255,305 Z M226,305 L203,288 L194,260 L217,277 Z M217,333 L188,333 L165,350 L194,350 Z M217,333 L188,333 L165,316 L194,316 Z M270,350 L241,350 L217,333 L246,333 Z M165,316 L174,288 L165,260 L156,288 Z M156,288 L165,260 L141,277 L132,305 Z M217,243 L226,215 L203,233 L194,260 Z M226,215 L197,215 L174,233 L203,233 Z M279,198 L288,171 L279,143 L270,171 Z M279,198 L250,198 L226,215 L255,215 Z M311,188 L288,171 L279,143 L302,160 Z M355,233 L326,233 L302,215 L331,215 Z M302,126 L311,98 L288,115 L279,143 Z M364,115 L335,115 L311,98 L340,98 Z M578,71 L587,43 L610,26 L601,54 Z M578,71 L549,71 L525,54 L554,54 Z M672,71 L648,54 L639,26 L663,43 Z M672,71 L701,71 L725,54 L696,54 Z M757,43 L786,43 L810,26 L781,26 Z M777,71 L786,43 L810,26 L801,54 Z M810,115 L786,98 L777,71 L801,88 Z M810,115 L839,115 L862,98 L833,98 Z M862,98 L871,71 L862,43 L853,71 Z M862,98 L871,71 L895,54 L886,81 Z M886,115 L915,115 L939,98 L909,98 Z M971,143 L948,126 L939,98 L962,115 Z M1033,188 L1009,171 L1000,143 L1024,160 Z M1024,215 L1053,215 L1076,233 L1047,233 Z M1033,243 L1056,260 L1047,233 L1024,215 Z M1024,305 L1033,277 L1056,260 L1047,288 Z M1085,316 L1094,288 L1085,260 L1076,288 Z M1094,288 L1118,305 L1109,277 L1085,260 Z M1118,305 L1147,305 L1171,288 L1141,288 Z M1138,333 L1147,305 L1171,288 L1162,316 Z M1147,360 L1171,377 L1162,350 L1138,333 Z M1171,377 L1200,377 L1223,395 L1194,395 Z M1162,405 L1185,422 L1194,450 L1171,433 Z M1214,422 L1223,395 L1232,422 L1223,450 Z M1223,450 L1247,467 L1256,495 L1232,478 Z M1162,495 L1171,467 L1194,450 L1185,478 Z M1214,478 L1223,450 L1232,478 L1223,505 Z M1214,567 L1223,539 L1232,567 L1223,595 Z M1171,522 L1200,522 L1223,505 L1194,505 Z M1171,522 L1200,522 L1223,539 L1194,539 Z M1138,567 L1162,584 L1171,612 L1147,595 Z M1138,567 L1147,539 L1171,522 L1162,550 Z M1100,595 L1109,567 L1118,595 L1109,622 Z M1118,539 L1147,539 L1171,522 L1141,522 Z M1085,495 L1109,512 L1118,539 L1094,522 Z M1109,478 L1138,478 L1162,495 L1132,495 Z M1076,522 L1085,495 L1094,522 L1085,550 Z M1033,478 L1062,478 L1085,495 L1056,495 Z M1000,522 L1024,539 L1033,567 L1009,550 Z M1000,522 L1009,495 L1033,478 L1024,505 Z M962,550 L971,522 L980,550 L971,578 Z M971,578 L1000,578 L1024,595 L995,595 Z M939,567 L948,539 L971,522 L962,550 Z M1033,422 L1062,422 L1085,405 L1056,405 Z M1053,450 L1076,467 L1085,495 L1062,478 Z M1053,450 L1062,422 L1085,405 L1076,433 Z M1085,405 L1094,377 L1085,350 L1076,377 Z M1085,405 L1094,377 L1118,360 L1109,388 Z M1109,422 L1138,422 L1162,405 L1132,405 Z M1033,333 L1062,333 L1085,316 L1056,316 Z M1033,333 L1062,333 L1085,350 L1056,350 Z M980,350 L1009,350 L1033,333 L1004,333 Z M957,333 L980,350 L971,322 L948,305 Z M948,360 L957,333 L948,305 L939,333 Z M1000,377 L1009,350 L1033,333 L1024,360 Z M1009,405 L1033,422 L1024,395 L1000,377 Z M895,377 L871,360 L862,333 L886,350 Z M895,377 L924,377 L948,360 L918,360 Z M862,333 L871,305 L862,277 L853,305 Z M862,333 L871,305 L895,288 L886,316 Z M862,388 L871,360 L862,333 L853,360 Z M801,377 L810,350 L833,333 L824,360 Z M833,333 L810,316 L801,288 L824,305 Z M810,260 L786,243 L777,215 L801,233 Z M810,260 L839,260 L862,243 L833,243 Z M781,260 L810,260 L786,243 L757,243 Z M777,215 L786,188 L810,171 L801,198 Z M748,160 L777,160 L801,143 L772,143 Z M772,143 L801,143 L777,126 L748,126 Z M748,126 L757,98 L748,71 L739,98 Z M830,143 L839,115 L862,98 L853,126 Z M862,188 L839,171 L830,143 L853,160 Z M886,171 L895,143 L886,115 L877,143 Z M909,188 L939,188 L915,171 L886,171 Z M939,188 L948,160 L971,143 L962,171 Z M971,198 L980,171 L971,143 L962,171 Z M971,233 L1000,233 L1024,215 L995,215 Z M895,233 L871,215 L862,188 L886,205 Z M895,233 L924,233 L948,215 L918,215 Z M862,243 L871,215 L862,188 L853,215 Z M915,260 L924,233 L948,215 L939,243 Z M948,305 L924,288 L915,260 L939,277 Z M971,288 L980,260 L971,233 L962,260 Z M971,288 L1000,288 L1024,305 L995,305 Z M918,305 L948,305 L924,288 L895,288 Z M833,188 L862,188 L839,171 L810,171 Z M833,277 L862,277 L839,260 L810,260 Z M995,215 L1024,215 L1000,198 L971,198 Z M716,115 L725,88 L748,71 L739,98 Z M772,377 L801,377 L777,360 L748,360 Z M1118,360 L1147,360 L1171,377 L1141,377 Z M1100,450 L1109,422 L1118,450 L1109,478 Z M1033,567 L1062,567 L1085,550 L1056,550 Z M1076,612 L1085,584 L1109,567 L1100,595 Z M1109,622 L1138,622 L1162,640 L1132,640 Z M1171,667 L1200,667 L1223,684 L1194,684 Z M1171,612 L1200,612 L1223,595 L1194,595 Z M1191,640 L1214,657 L1223,684 L1200,667 Z M1191,640 L1200,612 L1223,595 L1214,622 Z M1223,595 L1232,567 L1256,550 L1247,578 Z M1238,640 L1247,612 L1256,639 L1247,667 Z M1223,684 L1247,701 L1256,729 L1232,712 Z M1214,712 L1223,684 L1232,712 L1223,740 Z M1171,757 L1200,757 L1223,740 L1194,740 Z M1171,757 L1200,757 L1223,774 L1194,774 Z M1162,784 L1185,801 L1194,829 L1171,812 Z M1118,740 L1147,740 L1171,757 L1141,757 Z M1214,801 L1223,774 L1232,801 L1223,829 Z M1223,829 L1232,801 L1256,784 L1247,812 Z M1214,857 L1223,829 L1232,857 L1223,884 Z M1162,874 L1171,846 L1194,829 L1185,857 Z M1171,902 L1200,902 L1223,884 L1194,884 Z M1109,857 L1138,857 L1162,874 L1132,874 Z M1100,829 L1109,801 L1118,829 L1109,857 Z M1085,874 L1109,891 L1118,919 L1094,902 Z M1085,874 L1076,902 L1085,929 L1094,902 Z M1000,902 L1024,919 L1033,946 L1009,929 Z M980,929 L1009,929 L1033,946 L1004,946 Z M948,919 L939,946 L948,974 L957,946 Z M957,946 L948,974 L971,957 L980,929 Z M918,974 L948,974 L924,991 L895,991 Z M948,974 L939,1002 L915,1019 L924,991 Z M915,1019 L939,1036 L948,1064 L924,1046 Z M971,1046 L1000,1046 L1024,1064 L995,1064 Z M971,991 L962,1019 L971,1046 L980,1019 Z M971,991 L1000,991 L1024,974 L995,974 Z M1024,974 L1047,991 L1056,1019 L1033,1002 Z M1033,946 L1062,946 L1085,929 L1056,929 Z M1033,946 L1062,946 L1085,963 L1056,963 Z M1085,963 L1076,991 L1085,1019 L1094,991 Z M1094,991 L1085,1019 L1109,1002 L1118,974 Z M1033,1036 L1024,1064 L1047,1046 L1056,1019 Z M1024,1064 L1053,1064 L1076,1046 L1047,1046 Z M1033,1091 L1024,1119 L1000,1136 L1009,1108 Z M995,1064 L1024,1064 L1000,1081 L971,1081 Z M971,1081 L962,1108 L971,1136 L980,1108 Z M971,1136 L962,1164 L939,1181 L948,1153 Z M939,1091 L962,1108 L971,1136 L948,1119 Z M909,1091 L939,1091 L915,1108 L886,1108 Z M886,1108 L877,1136 L886,1164 L895,1136 Z M895,1046 L886,1074 L862,1091 L871,1064 Z M895,1046 L924,1046 L948,1064 L918,1064 Z M862,1036 L853,1064 L862,1091 L871,1064 Z M862,1091 L853,1119 L830,1136 L839,1108 Z M833,1091 L862,1091 L839,1108 L810,1108 Z M810,1164 L801,1191 L777,1208 L786,1181 Z M810,1164 L839,1164 L862,1181 L833,1181 Z M772,1136 L801,1136 L777,1153 L748,1153 Z M830,1136 L853,1153 L862,1181 L839,1164 Z M862,1181 L886,1198 L895,1225 L871,1208 Z M862,1181 L853,1208 L862,1236 L871,1208 Z M886,1164 L915,1164 L939,1181 L909,1181 Z M757,1236 L786,1236 L810,1253 L781,1253 Z M672,1208 L663,1236 L640,1253 L648,1225 Z M672,1208 L701,1208 L725,1225 L696,1225 Z M610,1198 L601,1225 L610,1253 L619,1225 Z M634,1181 L663,1181 L640,1198 L610,1198 Z M687,1164 L716,1164 L692,1181 L663,1181 Z M716,1164 L739,1181 L748,1208 L725,1191 Z M748,1119 L777,1119 L801,1136 L772,1136 Z M748,1153 L739,1181 L748,1208 L757,1181 Z M696,1136 L687,1164 L663,1181 L672,1153 Z M663,1091 L687,1108 L696,1136 L672,1119 Z M663,1091 L692,1091 L716,1108 L687,1108 Z M610,1108 L601,1136 L610,1164 L619,1136 Z M610,1164 L640,1164 L663,1181 L634,1181 Z M554,1136 L578,1153 L587,1181 L563,1164 Z M587,1091 L578,1119 L554,1136 L563,1108 Z M587,1091 L558,1091 L534,1108 L563,1108 Z M610,1074 L640,1074 L663,1091 L634,1091 Z M534,1164 L525,1191 L502,1208 L511,1181 Z M502,1153 L493,1181 L502,1208 L511,1181 Z M502,1119 L473,1119 L449,1136 L478,1136 Z M478,1136 L449,1136 L473,1153 L502,1153 Z M440,1164 L464,1181 L473,1208 L449,1191 Z M440,1164 L411,1164 L387,1181 L417,1181 Z M420,1136 L411,1164 L387,1181 L396,1153 Z M578,1208 L601,1225 L610,1253 L587,1236 Z M578,1208 L549,1208 L525,1225 L554,1225 Z M417,1091 L387,1091 L411,1108 L440,1108 Z M473,1064 L464,1091 L440,1108 L449,1081 Z M502,1064 L525,1081 L534,1108 L511,1091 Z M502,1064 L493,1091 L502,1119 L511,1091 Z M554,1046 L525,1046 L549,1064 L578,1064 Z M563,1164 L534,1164 L558,1181 L587,1181 Z M634,1091 L663,1091 L640,1108 L610,1108 Z M640,1019 L663,1036 L672,1064 L648,1046 Z M696,1046 L725,1046 L701,1064 L672,1064 Z M748,1064 L739,1091 L748,1119 L757,1091 Z M748,1064 L739,1091 L716,1108 L725,1081 Z M777,1064 L801,1081 L810,1108 L786,1091 Z M810,1019 L801,1046 L777,1064 L786,1036 Z M810,1019 L839,1019 L862,1036 L833,1036 Z M833,1002 L862,1002 L839,1019 L810,1019 Z M781,1019 L810,1019 L786,1036 L757,1036 Z M748,974 L777,974 L801,991 L772,991 Z M725,991 L748,1008 L757,1036 L734,1019 Z M725,991 L716,1019 L725,1046 L734,1019 Z M610,1019 L601,1046 L610,1074 L619,1046 Z M610,1019 L601,1046 L578,1064 L587,1036 Z M777,1208 L801,1225 L810,1253 L786,1236 Z M1118,974 L1147,974 L1171,991 L1141,991 Z M1138,946 L1162,963 L1171,991 L1147,974 Z M1147,919 L1138,946 L1162,929 L1171,902 Z M1118,919 L1147,919 L1171,902 L1141,902 Z M1138,712 L1162,729 L1171,757 L1147,740 Z M1138,712 L1147,684 L1171,667 L1162,695 Z M1109,657 L1138,657 L1162,640 L1132,640 Z M610,81 L619,54 L610,26 L601,54 Z M634,98 L663,98 L639,81 L610,81 Z M241,171 L250,143 L226,160 L217,188 Z M103,360 L112,333 L88,350 L79,377 Z M132,360 L103,360 L79,377 L108,377 Z M165,405 L141,388 L132,360 L156,377 Z M165,405 L174,377 L165,350 L156,377 Z M141,422 L112,422 L88,405 L117,405 Z M217,422 L188,422 L165,405 L194,405 Z M250,377 L226,360 L217,333 L241,350 Z M241,405 L250,377 L226,395 L217,422 Z M279,433 L288,405 L279,377 L270,405 Z M279,433 L250,433 L226,450 L255,450 Z M311,422 L288,405 L279,377 L302,395 Z M355,433 L364,405 L340,422 L331,450 Z M364,495 L340,478 L331,450 L355,467 Z M364,495 L335,495 L311,478 L340,478 Z M387,478 L396,450 L387,422 L378,450 Z M440,405 L411,405 L387,422 L417,422 Z M440,405 L411,405 L387,388 L417,388 Z M449,377 L426,360 L417,333 L440,350 Z M493,422 L464,422 L440,405 L469,405 Z M502,360 L511,333 L502,305 L493,333 Z M502,360 L473,360 L449,377 L478,377 Z M525,377 L534,350 L558,333 L549,360 Z M516,405 L525,377 L502,395 L493,422 Z M554,377 L525,377 L549,360 L578,360 Z M525,433 L534,405 L525,377 L516,405 Z M473,450 L449,433 L440,405 L464,422 Z M302,505 L311,478 L288,495 L279,522 Z M279,522 L288,495 L279,467 L270,495 Z M250,522 L226,505 L217,478 L241,495 Z M241,550 L250,522 L226,539 L217,567 Z M217,567 L188,567 L165,550 L194,550 Z M226,595 L217,622 L194,640 L203,612 Z M226,595 L197,595 L174,612 L203,612 Z M165,550 L174,522 L165,495 L156,522 Z M156,522 L165,495 L141,512 L132,539 Z M217,478 L188,478 L165,495 L194,495 Z M188,478 L197,450 L174,467 L165,495 Z M197,450 L174,433 L165,405 L188,422 Z M141,478 L150,450 L141,422 L132,450 Z M141,478 L112,478 L88,495 L117,495 Z M88,495 L65,478 L56,450 L79,467 Z M79,522 L50,522 L27,539 L56,539 Z M79,522 L50,522 L27,505 L56,505 Z M132,539 L103,539 L79,522 L108,522 Z M36,567 L27,595 L18,567 L27,539 Z M79,612 L50,612 L27,595 L56,595 Z M112,567 L88,550 L79,522 L103,539 Z M112,567 L103,595 L79,612 L88,584 Z M141,622 L112,622 L88,640 L117,640 Z M150,595 L141,622 L132,595 L141,567 Z M174,612 L150,595 L141,567 L165,584 Z M141,657 L112,657 L88,640 L117,640 Z M79,667 L50,667 L27,684 L56,684 Z M59,640 L36,622 L27,595 L50,612 Z M59,640 L50,667 L27,684 L36,657 Z M36,712 L27,740 L18,712 L27,684 Z M79,433 L88,405 L65,422 L56,450 Z M279,467 L250,467 L226,450 L255,450 Z M279,578 L288,550 L279,522 L270,550 Z M279,578 L250,578 L226,595 L255,595 Z M279,612 L250,612 L226,595 L255,595 Z M311,567 L288,550 L279,522 L302,539 Z M469,260 L440,260 L464,243 L493,243 Z M502,215 L511,188 L502,160 L493,188 Z M502,215 L511,188 L534,171 L525,198 Z M473,215 L449,198 L440,171 L464,188 Z M502,160 L473,160 L449,143 L478,143 Z M672,450 L648,433 L640,405 L663,422 Z M672,450 L701,450 L725,433 L696,433 Z M877,757 L886,729 L895,757 L886,784 Z M748,740 L777,740 L801,757 L772,757 Z M516,874 L493,857 L502,884 L525,902 Z M293,946 L270,929 L279,957 L302,974 Z M188,801 L165,784 L174,812 L197,829 Z M156,757 L132,740 L141,767 L165,784 Z M634,478 L663,478 L640,460 L610,460 Z " fill="rgb(255, 255, 255)"/>
<path d="M610,640 L587,622 L563,640 L587,657 Z M610,640 L640,640 L648,667 L619,667 Z M610,640 L640,640 L648,612 L619,612 Z M601,612 L610,584 L587,567 L578,595 Z M601,667 L578,684 L587,712 L610,695 Z M610,584 L640,584 L648,612 L619,612 Z M634,567 L610,550 L587,567 L610,584 Z M663,567 L640,584 L648,612 L672,595 Z M663,567 L672,539 L648,522 L640,550 Z M663,567 L692,567 L701,595 L672,595 Z M687,550 L716,550 L725,522 L696,522 Z M672,539 L648,522 L672,505 L696,522 Z M692,567 L716,550 L725,578 L701,595 Z M739,567 L748,539 L725,522 L716,550 Z M725,522 L748,505 L739,478 L716,495 Z M716,495 L725,467 L701,450 L692,478 Z M748,505 L777,505 L786,478 L757,478 Z M748,539 L725,522 L748,505 L772,522 Z M748,539 L777,539 L786,567 L757,567 Z M696,522 L725,522 L716,495 L687,495 Z M663,478 L672,450 L648,433 L640,460 Z M663,478 L692,478 L701,450 L672,450 Z M648,522 L672,505 L663,478 L640,495 Z M619,522 L648,522 L640,495 L610,495 Z M610,495 L587,478 L610,460 L634,478 Z M610,550 L587,567 L578,539 L601,522 Z M610,550 L640,550 L648,522 L619,522 Z M601,522 L578,505 L554,522 L578,539 Z M601,522 L610,495 L587,478 L578,505 Z M554,522 L525,522 L534,495 L563,495 Z M587,478 L610,460 L601,433 L578,450 Z M587,478 L558,478 L549,450 L578,450 Z M578,450 L587,422 L563,405 L554,433 Z M610,460 L640,460 L648,433 L619,433 Z M558,478 L534,495 L525,467 L549,450 Z M549,450 L525,433 L502,450 L525,467 Z M525,522 L502,505 L478,522 L502,539 Z M525,522 L534,495 L511,478 L502,505 Z M534,550 L511,567 L502,539 L525,522 Z M502,505 L473,505 L464,478 L493,478 Z M493,478 L464,478 L473,450 L502,450 Z M473,505 L449,522 L440,495 L464,478 Z M449,522 L420,522 L411,495 L440,495 Z M440,495 L449,467 L426,450 L417,478 Z M420,522 L396,539 L387,512 L411,495 Z M411,495 L387,478 L364,495 L387,512 Z M387,567 L364,550 L340,567 L364,584 Z M387,567 L396,539 L373,522 L364,550 Z M364,550 L335,550 L326,522 L355,522 Z M417,567 L387,567 L396,539 L426,539 Z M426,595 L396,595 L387,567 L417,567 Z M464,567 L440,550 L417,567 L440,584 Z M464,567 L473,539 L449,522 L440,550 Z M473,595 L449,612 L440,584 L464,567 Z M493,567 L464,567 L473,539 L502,539 Z M502,595 L473,595 L464,567 L493,567 Z M469,640 L440,640 L449,667 L478,667 Z M469,640 L440,640 L449,612 L478,612 Z M516,640 L493,657 L502,684 L525,667 Z M516,640 L493,622 L469,640 L493,657 Z M516,640 L525,612 L502,595 L493,622 Z M502,684 L473,684 L464,712 L493,712 Z M493,712 L464,712 L473,740 L502,740 Z M473,684 L464,712 L440,695 L449,667 Z M464,712 L440,729 L449,757 L473,740 Z M464,712 L440,695 L417,712 L440,729 Z M417,712 L387,712 L396,740 L426,740 Z M426,684 L396,684 L387,712 L417,712 Z M387,712 L364,729 L373,757 L396,740 Z M387,712 L364,695 L340,712 L364,729 Z M364,729 L335,729 L326,757 L355,757 Z M387,657 L378,684 L355,667 L364,640 Z M411,640 L387,622 L364,640 L387,657 Z M364,640 L335,640 L326,612 L355,612 Z M364,640 L335,640 L326,667 L355,667 Z M417,657 L387,657 L396,684 L426,684 Z M440,640 L417,657 L426,684 L449,667 Z M440,640 L449,612 L426,595 L417,622 Z M417,622 L387,622 L396,595 L426,595 Z M387,622 L364,640 L355,612 L378,595 Z M355,612 L364,584 L340,567 L331,595 Z M355,667 L331,684 L340,712 L364,695 Z M335,640 L311,622 L288,640 L311,657 Z M311,657 L302,684 L279,667 L288,640 Z M311,622 L288,640 L279,612 L302,595 Z M302,684 L279,701 L288,729 L311,712 Z M302,684 L279,667 L255,684 L279,701 Z M279,701 L250,701 L241,729 L270,729 Z M279,667 L250,667 L241,640 L270,640 Z M331,684 L302,684 L311,712 L340,712 Z M250,667 L226,684 L217,657 L241,640 Z M241,640 L217,622 L194,640 L217,657 Z M226,684 L197,684 L188,712 L217,712 Z M250,701 L241,729 L217,712 L226,684 Z M203,667 L174,667 L165,640 L194,640 Z M217,712 L194,729 L203,757 L226,740 Z M197,684 L188,712 L165,695 L174,667 Z M174,667 L150,684 L141,657 L165,640 Z M188,712 L165,695 L141,712 L165,729 Z M165,729 L156,757 L132,740 L141,712 Z M141,712 L112,712 L103,684 L132,684 Z M141,712 L112,712 L103,740 L132,740 Z M132,740 L108,757 L117,784 L141,767 Z M112,712 L88,695 L65,712 L88,729 Z M88,729 L79,757 L56,740 L65,712 Z M88,695 L65,712 L56,684 L79,667 Z M79,757 L56,774 L65,801 L88,784 Z M56,774 L27,774 L36,801 L65,801 Z M108,757 L79,757 L88,784 L117,784 Z M141,801 L112,801 L103,829 L132,829 Z M165,784 L141,801 L150,829 L174,812 Z M165,784 L141,767 L117,784 L141,801 Z M132,829 L103,829 L112,857 L141,857 Z M112,801 L103,829 L79,812 L88,784 Z M103,829 L79,846 L88,874 L112,857 Z M103,829 L79,812 L56,829 L79,846 Z M88,874 L79,902 L56,884 L65,857 Z M132,919 L103,919 L112,946 L141,946 Z M117,874 L88,874 L79,902 L108,902 Z M141,891 L132,919 L108,902 L117,874 Z M165,874 L141,857 L117,874 L141,891 Z M156,902 L132,919 L141,946 L165,929 Z M174,846 L165,874 L141,857 L150,829 Z M194,874 L165,874 L174,902 L203,902 Z M203,902 L174,902 L165,929 L194,929 Z M217,857 L194,874 L203,902 L226,884 Z M226,829 L197,829 L188,857 L217,857 Z M217,801 L188,801 L197,829 L226,829 Z M250,846 L241,874 L217,857 L226,829 Z M197,829 L174,812 L150,829 L174,846 Z M279,846 L250,846 L241,874 L270,874 Z M302,829 L279,846 L288,874 L311,857 Z M302,829 L279,812 L255,829 L279,846 Z M270,874 L241,874 L250,902 L279,902 Z M279,902 L250,902 L241,929 L270,929 Z M302,919 L293,946 L270,929 L279,902 Z M270,929 L246,946 L255,974 L279,957 Z M250,902 L226,884 L203,902 L226,919 Z M226,919 L217,946 L194,929 L203,902 Z M217,946 L194,963 L203,991 L226,974 Z M194,963 L165,963 L174,991 L203,991 Z M188,946 L165,929 L141,946 L165,963 Z M246,946 L217,946 L226,974 L255,974 Z M279,991 L250,991 L241,1019 L270,1019 Z M302,974 L279,991 L288,1019 L311,1002 Z M302,974 L279,957 L255,974 L279,991 Z M270,1019 L241,1019 L250,1046 L279,1046 Z M250,991 L241,1019 L217,1002 L226,974 Z M241,1019 L217,1036 L226,1064 L250,1046 Z M241,1019 L217,1002 L194,1019 L217,1036 Z M194,1019 L165,1019 L174,1046 L203,1046 Z M203,991 L174,991 L165,1019 L194,1019 Z M165,963 L156,991 L132,974 L141,946 Z M141,946 L112,946 L103,974 L132,974 Z M226,1064 L197,1064 L188,1091 L217,1091 Z M250,1081 L241,1108 L217,1091 L226,1064 Z M279,1081 L250,1081 L241,1108 L270,1108 Z M302,1064 L279,1081 L288,1108 L311,1091 Z M302,1064 L279,1046 L255,1064 L279,1081 Z M270,1108 L241,1108 L250,1136 L279,1136 Z M326,1136 L302,1153 L311,1181 L335,1164 Z M326,1136 L302,1119 L279,1136 L302,1153 Z M335,1108 L326,1136 L302,1119 L311,1091 Z M355,1136 L326,1136 L335,1164 L364,1164 Z M364,1164 L387,1181 L364,1198 L340,1181 Z M364,1108 L335,1108 L326,1136 L355,1136 Z M373,1136 L364,1164 L387,1181 L396,1153 Z M387,1091 L364,1108 L373,1136 L396,1119 Z M387,1091 L364,1074 L340,1091 L364,1108 Z M331,1064 L302,1064 L311,1091 L340,1091 Z M355,1046 L331,1064 L340,1091 L364,1074 Z M364,1019 L335,1019 L326,1046 L355,1046 Z M335,1019 L311,1002 L288,1019 L311,1036 Z M311,1036 L302,1064 L279,1046 L288,1019 Z M355,991 L326,991 L335,1019 L364,1019 Z M378,974 L355,991 L364,1019 L387,1002 Z M364,963 L355,991 L331,974 L340,946 Z M387,946 L364,929 L340,946 L364,963 Z M340,946 L311,946 L302,974 L331,974 Z M331,919 L302,919 L311,946 L340,946 Z M355,902 L331,919 L340,946 L364,929 Z M364,874 L335,874 L326,902 L355,902 Z M326,902 L302,884 L279,902 L302,919 Z M335,874 L326,902 L302,884 L311,857 Z M331,829 L302,829 L311,857 L340,857 Z M340,801 L311,801 L302,829 L331,829 Z M311,801 L302,829 L279,812 L288,784 Z M279,757 L250,757 L241,784 L270,784 Z M270,729 L241,729 L250,757 L279,757 Z M270,784 L241,784 L250,812 L279,812 Z M250,757 L226,740 L203,757 L226,774 Z M226,774 L217,801 L194,784 L203,757 Z M241,784 L217,801 L226,829 L250,812 Z M203,757 L174,757 L165,784 L194,784 Z M194,729 L165,729 L174,757 L203,757 Z M326,757 L302,774 L311,801 L335,784 Z M326,757 L302,740 L279,757 L302,774 Z M335,729 L326,757 L302,740 L311,712 Z M355,757 L326,757 L335,784 L364,784 Z M387,801 L378,829 L355,812 L364,784 Z M411,784 L387,767 L364,784 L387,801 Z M378,829 L355,846 L364,874 L387,857 Z M378,829 L355,812 L331,829 L355,846 Z M417,801 L387,801 L396,829 L426,829 Z M426,829 L396,829 L387,857 L417,857 Z M440,784 L417,801 L426,829 L449,812 Z M449,757 L420,757 L411,784 L440,784 Z M473,774 L464,801 L440,784 L449,757 Z M420,757 L411,784 L387,767 L396,740 Z M502,774 L473,774 L464,801 L493,801 Z M525,757 L502,774 L511,801 L534,784 Z M525,757 L502,740 L478,757 L502,774 Z M493,801 L464,801 L473,829 L502,829 Z M502,829 L473,829 L464,857 L493,857 Z M525,846 L516,874 L493,857 L502,829 Z M493,857 L469,874 L478,902 L502,884 Z M473,829 L449,812 L426,829 L449,846 Z M449,846 L440,874 L417,857 L426,829 Z M440,874 L417,891 L426,919 L449,902 Z M417,891 L387,891 L396,919 L426,919 Z M411,874 L387,857 L364,874 L387,891 Z M469,874 L440,874 L449,902 L478,902 Z M502,919 L473,919 L464,946 L493,946 Z M511,946 L502,974 L525,991 L534,963 Z M525,902 L502,919 L511,946 L534,929 Z M525,902 L502,884 L478,902 L502,919 Z M493,946 L464,946 L473,974 L502,974 Z M473,919 L464,946 L440,929 L449,902 Z M464,946 L440,963 L449,991 L473,974 Z M464,946 L440,929 L417,946 L440,963 Z M417,946 L387,946 L396,974 L426,974 Z M426,974 L396,974 L387,1002 L417,1002 Z M426,919 L396,919 L387,946 L417,946 Z M387,891 L378,919 L355,902 L364,874 Z M449,991 L440,1019 L417,1002 L426,974 Z M411,1019 L387,1002 L364,1019 L387,1036 Z M387,1036 L378,1064 L355,1046 L364,1019 Z M440,1019 L417,1036 L426,1064 L449,1046 Z M449,1046 L473,1064 L449,1081 L426,1064 Z M417,1036 L387,1036 L396,1064 L426,1064 Z M493,1036 L464,1036 L473,1064 L502,1064 Z M478,991 L469,1019 L493,1036 L502,1008 Z M478,991 L449,991 L440,1019 L469,1019 Z M502,974 L525,991 L502,1008 L478,991 Z M516,1019 L493,1036 L502,1064 L525,1046 Z M554,991 L525,991 L534,1019 L563,1019 Z M563,1019 L554,1046 L578,1064 L587,1036 Z M563,1019 L534,1019 L525,1046 L554,1046 Z M578,974 L554,991 L563,1019 L587,1002 Z M587,1002 L610,1019 L587,1036 L563,1019 Z M587,946 L578,974 L601,991 L610,963 Z M587,946 L558,946 L549,974 L578,974 Z M578,919 L549,919 L558,946 L587,946 Z M610,929 L634,946 L610,963 L587,946 Z M610,963 L640,963 L648,991 L619,991 Z M534,929 L558,946 L534,963 L511,946 Z M619,991 L648,991 L640,1019 L610,1019 Z M663,946 L640,963 L648,991 L672,974 Z M663,946 L692,946 L701,974 L672,974 Z M672,974 L663,1002 L687,1019 L696,991 Z M672,919 L701,919 L692,946 L663,946 Z M716,929 L739,946 L716,963 L692,946 Z M725,902 L716,929 L739,946 L748,919 Z M748,884 L772,902 L748,919 L725,902 Z M748,919 L777,919 L786,946 L757,946 Z M687,874 L663,891 L672,919 L696,902 Z M687,874 L716,874 L725,902 L696,902 Z M663,857 L687,874 L663,891 L640,874 Z M696,846 L725,846 L716,874 L687,874 Z M672,829 L663,857 L687,874 L696,846 Z M748,829 L725,846 L734,874 L757,857 Z M748,829 L777,829 L786,857 L757,857 Z M725,812 L748,829 L725,846 L701,829 Z M716,784 L692,801 L701,829 L725,812 Z M725,757 L716,784 L739,801 L748,774 Z M663,801 L640,819 L648,846 L672,829 Z M663,801 L692,801 L701,829 L672,829 Z M696,757 L725,757 L716,784 L687,784 Z M687,729 L716,729 L725,757 L696,757 Z M672,740 L696,757 L672,774 L648,757 Z M663,712 L640,729 L648,757 L672,740 Z M663,712 L672,684 L648,667 L640,695 Z M663,712 L692,712 L701,684 L672,684 Z M648,757 L640,784 L663,801 L672,774 Z M619,757 L648,757 L640,784 L610,784 Z M610,729 L601,757 L578,740 L587,712 Z M610,729 L640,729 L648,757 L619,757 Z M610,784 L634,801 L610,819 L587,801 Z M601,757 L578,774 L587,801 L610,784 Z M601,757 L578,740 L554,757 L578,774 Z M587,801 L578,829 L601,846 L610,819 Z M587,801 L558,801 L549,829 L578,829 Z M610,819 L640,819 L648,846 L619,846 Z M619,846 L648,846 L640,874 L610,874 Z M648,902 L640,929 L663,946 L672,919 Z M610,874 L640,874 L648,902 L619,902 Z M619,902 L648,902 L640,929 L610,929 Z M587,857 L610,874 L587,891 L563,874 Z M601,902 L578,919 L587,946 L610,929 Z M578,829 L554,846 L563,874 L587,857 Z M563,874 L554,902 L578,919 L587,891 Z M563,874 L534,874 L525,902 L554,902 Z M554,846 L525,846 L534,874 L563,874 Z M549,829 L525,812 L502,829 L525,846 Z M558,801 L549,829 L525,812 L534,784 Z M554,757 L525,757 L534,784 L563,784 Z M563,729 L534,729 L525,757 L554,757 Z M534,729 L525,757 L502,740 L511,712 Z M549,684 L525,701 L534,729 L558,712 Z M549,684 L525,667 L502,684 L525,701 Z M578,684 L587,657 L563,640 L554,667 Z M578,684 L549,684 L558,712 L587,712 Z M554,667 L525,667 L534,640 L563,640 Z M554,612 L525,612 L534,640 L563,640 Z M578,595 L554,612 L563,640 L587,622 Z M578,595 L549,595 L558,567 L587,567 Z M549,595 L525,578 L502,595 L525,612 Z M549,595 L558,567 L534,550 L525,578 Z M610,695 L640,695 L648,667 L619,667 Z M634,712 L610,695 L587,712 L610,729 Z M692,712 L701,684 L725,701 L716,729 Z M725,667 L748,684 L725,701 L701,684 Z M725,667 L734,640 L757,657 L748,684 Z M748,684 L777,684 L786,712 L757,712 Z M772,667 L801,667 L810,640 L781,640 Z M739,712 L716,729 L725,757 L748,740 Z M777,684 L801,667 L810,695 L786,712 Z M786,712 L810,729 L833,712 L810,695 Z M801,667 L810,640 L833,657 L824,684 Z M824,684 L853,684 L862,712 L833,712 Z M824,684 L853,684 L862,657 L833,657 Z M801,612 L824,595 L833,622 L810,640 Z M839,640 L862,657 L886,640 L862,622 Z M862,622 L871,595 L895,612 L886,640 Z M862,657 L886,640 L895,667 L871,684 Z M886,640 L915,640 L924,667 L895,667 Z M886,640 L915,640 L924,612 L895,612 Z M862,712 L886,729 L909,712 L886,695 Z M886,695 L895,667 L918,684 L909,712 Z M886,729 L915,729 L924,757 L895,757 Z M853,740 L862,712 L886,729 L877,757 Z M824,740 L853,740 L862,712 L833,712 Z M801,757 L777,774 L786,801 L810,784 Z M801,757 L830,757 L839,784 L810,784 Z M810,784 L801,812 L824,829 L833,801 Z M777,740 L786,712 L810,729 L801,757 Z M830,757 L853,740 L862,767 L839,784 Z M839,784 L862,801 L886,784 L862,767 Z M862,801 L886,784 L895,812 L871,829 Z M871,829 L895,846 L918,829 L895,812 Z M871,829 L862,857 L886,874 L895,846 Z M886,784 L915,784 L924,757 L895,757 Z M833,801 L862,801 L853,829 L824,829 Z M824,829 L801,846 L810,874 L833,857 Z M824,829 L853,829 L862,857 L833,857 Z M801,812 L824,829 L801,846 L777,829 Z M757,801 L786,801 L777,829 L748,829 Z M748,774 L777,774 L786,801 L757,801 Z M810,874 L801,902 L824,919 L833,891 Z M757,857 L748,884 L772,902 L781,874 Z M781,874 L810,874 L801,902 L772,902 Z M801,902 L777,919 L786,946 L810,929 Z M810,929 L833,946 L810,963 L786,946 Z M824,919 L853,919 L862,946 L833,946 Z M833,946 L862,946 L853,974 L824,974 Z M833,891 L862,891 L853,919 L824,919 Z M886,874 L862,891 L871,919 L895,902 Z M886,874 L915,874 L924,902 L895,902 Z M862,857 L886,874 L862,891 L839,874 Z M895,902 L886,929 L909,946 L918,919 Z M915,874 L939,857 L948,884 L924,902 Z M924,902 L948,919 L971,902 L948,884 Z M948,829 L971,846 L995,829 L971,812 Z M948,829 L939,857 L962,874 L971,846 Z M939,801 L962,784 L971,812 L948,829 Z M971,812 L1000,812 L1009,784 L980,784 Z M971,846 L1000,846 L1009,874 L980,874 Z M918,829 L948,829 L939,857 L909,857 Z M909,801 L939,801 L948,829 L918,829 Z M980,874 L1009,874 L1000,902 L971,902 Z M1000,846 L1024,829 L1033,857 L1009,874 Z M1024,829 L1053,829 L1062,857 L1033,857 Z M1024,829 L1053,829 L1062,801 L1033,801 Z M1033,857 L1024,884 L1047,902 L1056,874 Z M1000,812 L1009,784 L1033,801 L1024,829 Z M1053,829 L1076,846 L1100,829 L1076,812 Z M1076,812 L1085,784 L1109,801 L1100,829 Z M1076,846 L1100,829 L1109,857 L1085,874 Z M1085,784 L1109,801 L1132,784 L1109,767 Z M1109,767 L1118,740 L1141,757 L1132,784 Z M1109,801 L1138,801 L1147,829 L1118,829 Z M1047,757 L1076,757 L1085,784 L1056,784 Z M1047,757 L1076,757 L1085,729 L1056,729 Z M1024,774 L1047,757 L1056,784 L1033,801 Z M1024,740 L1033,712 L1056,729 L1047,757 Z M1085,729 L1109,712 L1118,740 L1094,757 Z M1109,712 L1138,712 L1147,740 L1118,740 Z M1109,712 L1138,712 L1147,684 L1118,684 Z M1062,712 L1085,729 L1109,712 L1085,695 Z M1053,684 L1076,667 L1085,695 L1062,712 Z M1076,667 L1085,640 L1109,657 L1100,684 Z M1085,640 L1109,657 L1132,640 L1109,622 Z M1047,667 L1076,667 L1085,640 L1056,640 Z M1024,684 L1053,684 L1062,712 L1033,712 Z M1047,612 L1076,612 L1085,640 L1056,640 Z M1024,595 L1053,595 L1062,567 L1033,567 Z M1009,640 L1033,657 L1056,640 L1033,622 Z M1000,612 L1024,595 L1033,622 L1009,640 Z M1000,667 L1009,640 L1033,657 L1024,684 Z M971,612 L1000,612 L1009,640 L980,640 Z M971,667 L1000,667 L1009,640 L980,640 Z M948,684 L971,701 L995,684 L971,667 Z M971,701 L1000,701 L1009,729 L980,729 Z M1000,701 L1024,684 L1033,712 L1009,729 Z M1000,757 L1024,774 L1047,757 L1024,740 Z M971,757 L1000,757 L1009,784 L980,784 Z M971,757 L1000,757 L1009,729 L980,729 Z M939,712 L948,684 L971,701 L962,729 Z M924,757 L948,774 L971,757 L948,740 Z M915,729 L939,712 L948,740 L924,757 Z M915,784 L924,757 L948,774 L939,801 Z M909,712 L939,712 L948,684 L918,684 Z M915,640 L939,657 L962,640 L939,622 Z M939,622 L948,595 L971,612 L962,640 Z M939,657 L962,640 L971,667 L948,684 Z M948,595 L971,612 L995,595 L971,578 Z M886,584 L909,567 L918,595 L895,612 Z M862,567 L886,584 L909,567 L886,550 Z M853,539 L877,522 L886,550 L862,567 Z M886,550 L915,550 L924,522 L895,522 Z M824,539 L853,539 L862,567 L833,567 Z M824,595 L853,595 L862,622 L833,622 Z M824,595 L853,595 L862,567 L833,567 Z M801,522 L810,495 L786,478 L777,505 Z M801,522 L830,522 L839,495 L810,495 Z M786,567 L810,584 L833,567 L810,550 Z M777,539 L801,522 L810,550 L786,567 Z M777,595 L786,567 L810,584 L801,612 Z M748,595 L777,595 L786,567 L757,567 Z M725,612 L748,595 L757,622 L734,640 Z M725,612 L701,595 L725,578 L748,595 Z M772,612 L801,612 L810,640 L781,640 Z M734,640 L757,657 L781,640 L757,622 Z M687,640 L663,657 L672,684 L696,667 Z M687,640 L663,622 L640,640 L663,657 Z M687,640 L696,612 L672,595 L663,622 Z M687,640 L716,640 L725,667 L696,667 Z M687,640 L716,640 L725,612 L696,612 Z M810,495 L833,478 L824,450 L801,467 Z M830,522 L839,495 L862,512 L853,539 Z M839,495 L862,512 L886,495 L862,478 Z M862,478 L871,450 L895,467 L886,495 Z M886,495 L915,495 L924,522 L895,522 Z M909,478 L939,478 L948,450 L918,450 Z M915,495 L939,478 L948,505 L924,522 Z M924,522 L948,539 L971,522 L948,505 Z M939,478 L948,450 L971,467 L962,495 Z M948,450 L971,433 L962,405 L939,422 Z M948,450 L971,467 L995,450 L971,433 Z M971,433 L1000,433 L1009,405 L980,405 Z M971,467 L1000,467 L1009,495 L980,495 Z M918,450 L948,450 L939,422 L909,422 Z M886,405 L895,377 L871,360 L862,388 Z M886,405 L915,405 L924,377 L895,377 Z M871,450 L895,433 L886,405 L862,422 Z M871,450 L895,467 L918,450 L895,433 Z M862,422 L839,405 L862,388 L886,405 Z M810,405 L833,388 L824,360 L801,377 Z M824,450 L833,422 L810,405 L801,433 Z M824,450 L853,450 L862,422 L833,422 Z M833,478 L862,478 L853,450 L824,450 Z M801,467 L777,450 L801,433 L824,450 Z M748,450 L757,422 L734,405 L725,433 Z M748,450 L777,450 L786,422 L757,422 Z M757,478 L786,478 L777,450 L748,450 Z M725,467 L701,450 L725,433 L748,450 Z M757,422 L781,405 L772,377 L748,395 Z M748,395 L725,377 L748,360 L772,377 Z M781,405 L810,405 L801,377 L772,377 Z M725,377 L748,360 L739,333 L716,350 Z M716,350 L692,333 L716,316 L739,333 Z M748,360 L777,360 L786,333 L757,333 Z M672,360 L701,360 L692,333 L663,333 Z M687,405 L696,377 L672,360 L663,388 Z M687,405 L716,405 L725,377 L696,377 Z M696,433 L725,433 L716,405 L687,405 Z M663,422 L640,405 L663,388 L687,405 Z M648,377 L672,360 L663,333 L640,350 Z M610,405 L640,405 L648,377 L619,377 Z M601,377 L610,350 L587,333 L578,360 Z M619,433 L648,433 L640,405 L610,405 Z M587,422 L563,405 L587,388 L610,405 Z M619,377 L648,377 L640,350 L610,350 Z M610,350 L587,333 L610,316 L634,333 Z M587,333 L610,316 L601,288 L578,305 Z M587,333 L558,333 L549,305 L578,305 Z M663,333 L672,305 L648,288 L640,316 Z M663,333 L692,333 L701,305 L672,305 Z M672,305 L696,288 L687,260 L663,277 Z M748,305 L725,288 L748,271 L772,288 Z M734,260 L757,243 L748,215 L725,233 Z M696,288 L725,288 L716,260 L687,260 Z M687,260 L696,233 L672,215 L663,243 Z M687,260 L716,260 L725,233 L696,233 Z M663,277 L639,260 L663,243 L687,260 Z M672,215 L701,215 L692,188 L663,188 Z M725,233 L701,215 L725,198 L748,215 Z M748,215 L777,215 L786,188 L757,188 Z M701,215 L725,198 L716,171 L692,188 Z M739,188 L748,160 L725,143 L716,171 Z M725,143 L748,126 L739,98 L716,115 Z M687,171 L716,171 L725,143 L696,143 Z M663,188 L672,160 L648,143 L639,171 Z M696,143 L725,143 L716,115 L687,115 Z M672,160 L648,143 L672,126 L696,143 Z M663,98 L672,71 L648,54 L639,81 Z M663,98 L692,98 L701,71 L672,71 Z M648,143 L672,126 L663,98 L639,115 Z M619,143 L648,143 L639,115 L610,115 Z M610,115 L587,98 L610,81 L634,98 Z M610,171 L639,171 L648,143 L619,143 Z M601,143 L610,115 L587,98 L578,126 Z M587,188 L610,171 L601,143 L578,160 Z M610,205 L587,188 L610,171 L634,188 Z M619,233 L648,233 L639,205 L610,205 Z M601,233 L610,205 L587,188 L578,215 Z M648,233 L672,215 L663,188 L639,205 Z M610,260 L639,260 L648,233 L619,233 Z M619,288 L648,288 L639,260 L610,260 Z M587,277 L563,260 L587,243 L610,260 Z M610,316 L640,316 L648,288 L619,288 Z M578,305 L587,277 L563,260 L554,288 Z M554,288 L525,288 L534,260 L563,260 Z M516,260 L525,233 L502,215 L493,243 Z M502,305 L478,288 L502,271 L525,288 Z M525,233 L502,215 L525,198 L549,215 Z M563,260 L587,243 L578,215 L554,233 Z M563,260 L534,260 L525,233 L554,233 Z M578,215 L549,215 L558,188 L587,188 Z M549,215 L558,188 L534,171 L525,198 Z M525,143 L534,115 L511,98 L502,126 Z M511,188 L534,171 L525,143 L502,160 Z M563,171 L534,171 L525,143 L554,143 Z M554,143 L525,143 L534,115 L563,115 Z M578,160 L554,143 L578,126 L601,143 Z M587,98 L610,81 L601,54 L578,71 Z M587,98 L558,98 L549,71 L578,71 Z M534,115 L558,98 L549,71 L525,88 Z M525,88 L502,71 L525,54 L549,71 Z M502,71 L525,54 L516,26 L493,43 Z M502,71 L473,71 L464,43 L493,43 Z M502,126 L473,126 L464,98 L493,98 Z M493,98 L464,98 L473,71 L502,71 Z M449,143 L473,126 L464,98 L440,115 Z M449,143 L420,143 L411,115 L440,115 Z M440,115 L449,88 L426,71 L417,98 Z M440,171 L411,171 L420,143 L449,143 Z M396,160 L373,143 L396,126 L420,143 Z M387,188 L364,171 L340,188 L364,205 Z M387,188 L396,160 L373,143 L364,171 Z M364,171 L335,171 L326,143 L355,143 Z M426,215 L449,198 L440,171 L417,188 Z M426,215 L396,215 L387,188 L417,188 Z M449,233 L426,215 L449,198 L473,215 Z M417,243 L387,243 L396,215 L426,215 Z M440,260 L449,233 L426,215 L417,243 Z M387,243 L364,260 L355,233 L378,215 Z M364,260 L335,260 L326,233 L355,233 Z M411,260 L387,243 L364,260 L387,277 Z M378,305 L387,277 L364,260 L355,288 Z M426,305 L396,305 L387,277 L417,277 Z M449,288 L426,305 L417,277 L440,260 Z M417,333 L387,333 L396,305 L426,305 Z M426,360 L396,360 L387,333 L417,333 Z M387,333 L364,316 L340,333 L364,350 Z M364,316 L340,333 L331,305 L355,288 Z M387,388 L364,405 L355,377 L378,360 Z M355,377 L364,350 L340,333 L331,360 Z M364,405 L335,405 L326,377 L355,377 Z M331,360 L302,360 L311,333 L340,333 Z M326,377 L302,360 L279,377 L302,395 Z M335,405 L311,422 L302,395 L326,377 Z M302,360 L279,377 L270,350 L293,333 Z M279,377 L250,377 L241,350 L270,350 Z M302,305 L279,288 L255,305 L279,322 Z M302,305 L311,277 L288,260 L279,288 Z M340,333 L311,333 L302,305 L331,305 Z M355,288 L326,288 L335,260 L364,260 Z M335,260 L311,243 L288,260 L311,277 Z M311,243 L288,260 L279,233 L302,215 Z M302,215 L279,198 L255,215 L279,233 Z M302,215 L311,188 L288,171 L279,198 Z M279,288 L250,288 L241,260 L270,260 Z M270,260 L241,260 L250,233 L279,233 Z M250,288 L226,305 L217,277 L241,260 Z M241,260 L217,243 L194,260 L217,277 Z M241,260 L250,233 L226,215 L217,243 Z M203,288 L174,288 L165,260 L194,260 Z M217,333 L226,305 L203,288 L194,316 Z M226,360 L203,377 L194,350 L217,333 Z M194,316 L165,316 L174,288 L203,288 Z M188,333 L165,316 L141,333 L165,350 Z M246,333 L217,333 L226,305 L255,305 Z M270,350 L279,322 L255,305 L246,333 Z M165,316 L141,333 L132,305 L156,288 Z M141,333 L112,333 L103,305 L132,305 Z M194,260 L165,260 L174,233 L203,233 Z M226,215 L197,215 L188,188 L217,188 Z M250,198 L226,215 L217,188 L241,171 Z M279,198 L250,198 L241,171 L270,171 Z M270,171 L241,171 L250,143 L279,143 Z M335,171 L311,188 L302,160 L326,143 Z M331,215 L302,215 L311,188 L340,188 Z M355,233 L364,205 L340,188 L331,215 Z M326,143 L302,126 L279,143 L302,160 Z M326,143 L335,115 L311,98 L302,126 Z M355,143 L326,143 L335,115 L364,115 Z M364,115 L340,98 L364,81 L387,98 Z M373,143 L396,126 L387,98 L364,115 Z M417,98 L387,98 L396,71 L426,71 Z M449,88 L426,71 L449,54 L473,71 Z M554,54 L525,54 L534,26 L563,26 Z M578,71 L587,43 L563,26 L554,54 Z M587,43 L563,26 L587,9 L610,26 Z M619,54 L648,54 L639,26 L610,26 Z M663,43 L639,26 L663,9 L687,26 Z M672,71 L696,54 L687,26 L663,43 Z M696,54 L725,54 L716,26 L687,26 Z M748,71 L757,43 L734,26 L725,54 Z M748,71 L777,71 L786,43 L757,43 Z M801,88 L777,71 L801,54 L824,71 Z M810,115 L833,98 L824,71 L801,88 Z M824,71 L833,43 L810,26 L801,54 Z M824,71 L853,71 L862,43 L833,43 Z M833,98 L862,98 L853,71 L824,71 Z M909,98 L918,71 L895,54 L886,81 Z M886,115 L862,98 L886,81 L909,98 Z M980,171 L1009,171 L1000,143 L971,143 Z M948,160 L924,143 L948,126 L971,143 Z M1024,215 L1033,188 L1009,171 L1000,198 Z M1024,215 L1053,215 L1062,188 L1033,188 Z M1053,215 L1062,188 L1085,205 L1076,233 Z M1085,260 L1109,243 L1100,215 L1076,233 Z M1085,260 L1109,277 L1132,260 L1109,243 Z M1056,260 L1085,260 L1076,233 L1047,233 Z M1047,288 L1076,288 L1085,260 L1056,260 Z M1056,316 L1085,316 L1076,288 L1047,288 Z M1085,316 L1094,288 L1118,305 L1109,333 Z M1062,333 L1085,350 L1109,333 L1085,316 Z M1109,333 L1138,333 L1147,305 L1118,305 Z M1118,305 L1141,288 L1132,260 L1109,277 Z M1138,333 L1162,350 L1185,333 L1162,316 Z M1171,377 L1194,360 L1185,333 L1162,350 Z M1162,405 L1171,377 L1194,395 L1185,422 Z M1185,422 L1214,422 L1223,450 L1194,450 Z M1185,422 L1214,422 L1223,395 L1194,395 Z M1185,478 L1214,478 L1223,505 L1194,505 Z M1185,478 L1214,478 L1223,450 L1194,450 Z M1162,495 L1185,478 L1194,505 L1171,522 Z M1223,505 L1232,478 L1256,495 L1247,522 Z M1200,522 L1223,539 L1247,522 L1223,505 Z M1223,539 L1247,522 L1256,550 L1232,567 Z M1185,567 L1214,567 L1223,595 L1194,595 Z M1185,567 L1214,567 L1223,539 L1194,539 Z M1162,584 L1185,567 L1194,595 L1171,612 Z M1162,550 L1171,522 L1194,539 L1185,567 Z M1138,567 L1162,584 L1185,567 L1162,550 Z M1109,567 L1138,567 L1147,595 L1118,595 Z M1109,567 L1138,567 L1147,539 L1118,539 Z M1085,550 L1094,522 L1118,539 L1109,567 Z M1109,512 L1132,495 L1141,522 L1118,539 Z M1085,495 L1109,512 L1132,495 L1109,478 Z M1076,467 L1100,450 L1109,478 L1085,495 Z M1109,478 L1138,478 L1147,450 L1118,450 Z M1047,522 L1076,522 L1085,550 L1056,550 Z M1047,522 L1076,522 L1085,495 L1056,495 Z M1024,539 L1047,522 L1056,550 L1033,567 Z M1024,505 L1033,478 L1056,495 L1047,522 Z M1000,522 L1024,539 L1047,522 L1024,505 Z M971,522 L1000,522 L1009,550 L980,550 Z M971,522 L1000,522 L1009,495 L980,495 Z M971,578 L1000,578 L1009,550 L980,550 Z M939,567 L962,550 L971,578 L948,595 Z M915,550 L924,522 L948,539 L939,567 Z M909,567 L939,567 L948,595 L918,595 Z M1000,578 L1009,550 L1033,567 L1024,595 Z M1000,467 L1024,450 L1033,478 L1009,495 Z M1024,450 L1053,450 L1062,478 L1033,478 Z M1024,450 L1053,450 L1062,422 L1033,422 Z M1000,433 L1009,405 L1033,422 L1024,450 Z M1033,422 L1056,405 L1047,377 L1024,395 Z M1053,450 L1076,467 L1100,450 L1076,433 Z M1076,433 L1085,405 L1109,422 L1100,450 Z M1085,405 L1109,422 L1132,405 L1109,388 Z M1109,388 L1118,360 L1141,377 L1132,405 Z M1109,422 L1138,422 L1147,450 L1118,450 Z M1094,377 L1118,360 L1109,333 L1085,350 Z M1056,405 L1085,405 L1076,377 L1047,377 Z M1047,377 L1076,377 L1085,350 L1056,350 Z M1024,360 L1033,333 L1056,350 L1047,377 Z M1033,333 L1056,316 L1047,288 L1024,305 Z M1004,333 L1033,333 L1024,305 L995,305 Z M980,350 L1004,333 L995,305 L971,322 Z M971,377 L1000,377 L1009,350 L980,350 Z M980,405 L1009,405 L1000,377 L971,377 Z M948,360 L957,333 L980,350 L971,377 Z M1000,377 L1024,395 L1047,377 L1024,360 Z M924,377 L948,395 L971,377 L948,360 Z M918,360 L948,360 L939,333 L909,333 Z M909,333 L918,305 L895,288 L886,316 Z M909,333 L939,333 L948,305 L918,305 Z M895,377 L918,360 L909,333 L886,350 Z M886,350 L862,333 L886,316 L909,333 Z M833,388 L862,388 L853,360 L824,360 Z M824,360 L853,360 L862,333 L833,333 Z M801,377 L810,350 L786,333 L777,360 Z M833,333 L862,333 L853,305 L824,305 Z M824,305 L833,277 L810,260 L801,288 Z M824,305 L853,305 L862,277 L833,277 Z M810,350 L786,333 L810,316 L833,333 Z M786,333 L810,316 L801,288 L777,305 Z M757,333 L786,333 L777,305 L748,305 Z M810,260 L833,243 L824,215 L801,233 Z M772,288 L781,260 L757,243 L748,271 Z M772,288 L801,288 L810,260 L781,260 Z M757,243 L786,243 L777,215 L748,215 Z M801,233 L777,215 L801,198 L824,215 Z M786,188 L810,171 L801,143 L777,160 Z M810,171 L839,171 L830,143 L801,143 Z M757,188 L786,188 L777,160 L748,160 Z M748,160 L725,143 L748,126 L772,143 Z M748,126 L777,126 L786,98 L757,98 Z M801,143 L810,115 L786,98 L777,126 Z M801,143 L830,143 L839,115 L810,115 Z M853,160 L830,143 L853,126 L877,143 Z M862,188 L886,171 L877,143 L853,160 Z M877,143 L886,115 L862,98 L853,126 Z M886,171 L915,171 L924,143 L895,143 Z M895,143 L924,143 L915,115 L886,115 Z M939,188 L948,160 L924,143 L915,171 Z M924,143 L948,126 L939,98 L915,115 Z M948,215 L971,198 L962,171 L939,188 Z M971,198 L1000,198 L1009,171 L980,171 Z M971,233 L948,215 L971,198 L995,215 Z M918,215 L948,215 L939,188 L909,188 Z M895,233 L918,215 L909,188 L886,205 Z M886,205 L862,188 L886,171 L909,188 Z M886,260 L895,233 L871,215 L862,243 Z M886,260 L915,260 L924,233 L895,233 Z M895,288 L924,288 L915,260 L886,260 Z M862,277 L839,260 L862,243 L886,260 Z M939,277 L915,260 L939,243 L962,260 Z M948,305 L971,288 L962,260 L939,277 Z M948,305 L971,322 L995,305 L971,288 Z M962,260 L971,233 L948,215 L939,243 Z M971,288 L1000,288 L1009,260 L980,260 Z M980,260 L1009,260 L1000,233 L971,233 Z M1000,288 L1009,260 L1033,277 L1024,305 Z M1009,260 L1033,243 L1024,215 L1000,233 Z M1009,260 L1033,277 L1056,260 L1033,243 Z M833,243 L862,243 L853,215 L824,215 Z M824,215 L833,188 L810,171 L801,198 Z M824,215 L853,215 L862,188 L833,188 Z M871,305 L895,288 L886,260 L862,277 Z M757,98 L786,98 L777,71 L748,71 Z M716,115 L725,88 L701,71 L692,98 Z M725,88 L701,71 L725,54 L748,71 Z M915,405 L924,377 L948,395 L939,422 Z M1118,360 L1147,360 L1138,333 L1109,333 Z M1132,405 L1162,405 L1171,377 L1141,377 Z M1138,422 L1162,405 L1171,433 L1147,450 Z M1147,450 L1171,467 L1194,450 L1171,433 Z M1138,478 L1147,450 L1171,467 L1162,495 Z M1062,567 L1085,584 L1109,567 L1085,550 Z M1053,595 L1062,567 L1085,584 L1076,612 Z M1076,612 L1100,595 L1109,622 L1085,640 Z M1132,495 L1162,495 L1171,522 L1141,522 Z M1109,622 L1138,622 L1147,595 L1118,595 Z M1138,622 L1147,595 L1171,612 L1162,640 Z M1162,640 L1191,640 L1200,667 L1171,667 Z M1162,640 L1191,640 L1200,612 L1171,612 Z M1138,657 L1162,640 L1171,667 L1147,684 Z M1191,640 L1214,657 L1238,640 L1214,622 Z M1214,622 L1223,595 L1247,612 L1238,640 Z M1214,657 L1238,640 L1247,667 L1223,684 Z M1223,595 L1247,612 L1270,595 L1247,578 Z M1223,684 L1247,701 L1270,684 L1247,667 Z M1223,774 L1247,757 L1256,784 L1232,801 Z M1223,740 L1232,712 L1256,729 L1247,757 Z M1200,757 L1223,774 L1247,757 L1223,740 Z M1185,712 L1214,712 L1223,740 L1194,740 Z M1185,712 L1214,712 L1223,684 L1194,684 Z M1162,729 L1185,712 L1194,740 L1171,757 Z M1162,784 L1171,757 L1194,774 L1185,801 Z M1132,784 L1162,784 L1171,757 L1141,757 Z M1138,801 L1162,784 L1171,812 L1147,829 Z M1185,801 L1214,801 L1223,829 L1194,829 Z M1185,801 L1214,801 L1223,774 L1194,774 Z M1185,857 L1214,857 L1223,884 L1194,884 Z M1185,857 L1214,857 L1223,829 L1194,829 Z M1162,874 L1185,857 L1194,884 L1171,902 Z M1171,902 L1162,929 L1185,946 L1194,919 Z M1138,857 L1147,829 L1171,846 L1162,874 Z M1132,874 L1162,874 L1171,902 L1141,902 Z M1109,891 L1132,874 L1141,902 L1118,919 Z M1109,857 L1138,857 L1147,829 L1118,829 Z M1085,874 L1109,891 L1132,874 L1109,857 Z M1147,829 L1171,846 L1194,829 L1171,812 Z M1094,902 L1085,929 L1109,946 L1118,919 Z M1056,874 L1085,874 L1076,902 L1047,902 Z M1047,902 L1076,902 L1085,929 L1056,929 Z M1024,919 L1047,902 L1056,929 L1033,946 Z M1000,902 L1024,919 L1047,902 L1024,884 Z M971,902 L1000,902 L1009,929 L980,929 Z M980,929 L971,957 L995,974 L1004,946 Z M948,919 L971,902 L980,929 L957,946 Z M918,919 L948,919 L939,946 L909,946 Z M909,946 L886,963 L895,991 L918,974 Z M909,946 L939,946 L948,974 L918,974 Z M886,929 L909,946 L886,963 L862,946 Z M895,991 L924,991 L915,1019 L886,1019 Z M871,974 L862,1002 L886,1019 L895,991 Z M886,1019 L862,1036 L871,1064 L895,1046 Z M886,1019 L915,1019 L924,1046 L895,1046 Z M948,974 L971,991 L995,974 L971,957 Z M948,974 L939,1002 L962,1019 L971,991 Z M939,1002 L962,1019 L939,1036 L915,1019 Z M948,1064 L939,1091 L962,1108 L971,1081 Z M962,1019 L939,1036 L948,1064 L971,1046 Z M971,1046 L995,1064 L971,1081 L948,1064 Z M971,991 L1000,991 L1009,1019 L980,1019 Z M980,1019 L1009,1019 L1000,1046 L971,1046 Z M1000,991 L1024,974 L1033,1002 L1009,1019 Z M1009,1019 L1033,1036 L1056,1019 L1033,1002 Z M1009,1019 L1000,1046 L1024,1064 L1033,1036 Z M1047,991 L1076,991 L1085,1019 L1056,1019 Z M1033,946 L1024,974 L1047,991 L1056,963 Z M1056,963 L1085,963 L1076,991 L1047,991 Z M1004,946 L1033,946 L1024,974 L995,974 Z M1062,946 L1085,963 L1109,946 L1085,929 Z M1085,963 L1109,946 L1118,974 L1094,991 Z M1109,946 L1138,946 L1147,974 L1118,974 Z M1085,1019 L1109,1036 L1132,1019 L1109,1002 Z M1085,1019 L1076,1046 L1100,1064 L1109,1036 Z M1056,1019 L1085,1019 L1076,1046 L1047,1046 Z M1024,1064 L1000,1081 L1009,1108 L1033,1091 Z M1024,1064 L1053,1064 L1062,1091 L1033,1091 Z M1053,1064 L1076,1046 L1085,1074 L1062,1091 Z M971,1081 L1000,1081 L1009,1108 L980,1108 Z M980,1108 L1009,1108 L1000,1136 L971,1136 Z M939,1091 L915,1108 L924,1136 L948,1119 Z M948,1119 L971,1136 L948,1153 L924,1136 Z M886,1108 L915,1108 L924,1136 L895,1136 Z M886,1074 L909,1091 L886,1108 L862,1091 Z M918,1064 L948,1064 L939,1091 L909,1091 Z M895,1046 L886,1074 L909,1091 L918,1064 Z M862,1091 L853,1119 L877,1136 L886,1108 Z M853,1119 L877,1136 L853,1153 L830,1136 Z M824,1064 L801,1081 L810,1108 L833,1091 Z M824,1064 L853,1064 L862,1091 L833,1091 Z M810,1108 L839,1108 L830,1136 L801,1136 Z M786,1091 L777,1119 L801,1136 L810,1108 Z M801,1136 L777,1153 L786,1181 L810,1164 Z M801,1136 L830,1136 L839,1164 L810,1164 Z M810,1164 L801,1191 L824,1208 L833,1181 Z M877,1136 L853,1153 L862,1181 L886,1164 Z M886,1164 L909,1181 L886,1198 L862,1181 Z M909,1181 L886,1198 L895,1225 L918,1208 Z M895,1136 L924,1136 L915,1164 L886,1164 Z M924,1136 L915,1164 L939,1181 L948,1153 Z M824,1208 L801,1225 L810,1253 L833,1236 Z M824,1208 L853,1208 L862,1236 L833,1236 Z M748,1208 L725,1225 L734,1253 L757,1236 Z M748,1208 L777,1208 L786,1236 L757,1236 Z M696,1225 L725,1225 L716,1253 L687,1253 Z M672,1208 L663,1236 L687,1253 L696,1225 Z M663,1236 L687,1253 L663,1270 L640,1253 Z M587,1236 L610,1253 L587,1270 L563,1253 Z M619,1225 L648,1225 L640,1253 L610,1253 Z M610,1198 L640,1198 L648,1225 L619,1225 Z M587,1181 L578,1208 L601,1225 L610,1198 Z M587,1181 L558,1181 L549,1208 L578,1208 Z M663,1181 L640,1198 L648,1225 L672,1208 Z M663,1181 L692,1181 L701,1208 L672,1208 Z M716,1164 L692,1181 L701,1208 L725,1191 Z M725,1191 L748,1208 L725,1225 L701,1208 Z M725,1136 L716,1164 L739,1181 L748,1153 Z M748,1119 L772,1136 L748,1153 L725,1136 Z M748,1153 L777,1153 L786,1181 L757,1181 Z M696,1136 L725,1136 L716,1164 L687,1164 Z M687,1108 L716,1108 L725,1136 L696,1136 Z M672,1119 L696,1136 L672,1153 L648,1136 Z M663,1091 L640,1108 L648,1136 L672,1119 Z M648,1136 L640,1164 L663,1181 L672,1153 Z M619,1136 L648,1136 L640,1164 L610,1164 Z M610,1108 L640,1108 L648,1136 L619,1136 Z M610,1164 L634,1181 L610,1198 L587,1181 Z M601,1136 L578,1153 L587,1181 L610,1164 Z M578,1119 L601,1136 L578,1153 L554,1136 Z M554,1136 L525,1136 L534,1164 L563,1164 Z M587,1091 L578,1119 L601,1136 L610,1108 Z M578,1064 L549,1064 L558,1091 L587,1091 Z M610,1074 L634,1091 L610,1108 L587,1091 Z M563,1108 L534,1108 L525,1136 L554,1136 Z M549,1064 L525,1081 L534,1108 L558,1091 Z M511,1091 L502,1119 L525,1136 L534,1108 Z M525,1136 L502,1153 L511,1181 L534,1164 Z M534,1164 L525,1191 L549,1208 L558,1181 Z M502,1153 L473,1153 L464,1181 L493,1181 Z M502,1119 L525,1136 L502,1153 L478,1136 Z M493,1091 L464,1091 L473,1119 L502,1119 Z M464,1091 L440,1108 L449,1136 L473,1119 Z M449,1136 L440,1164 L464,1181 L473,1153 Z M449,1136 L420,1136 L411,1164 L440,1164 Z M440,1108 L411,1108 L420,1136 L449,1136 Z M440,1164 L417,1181 L426,1208 L449,1191 Z M396,1119 L420,1136 L396,1153 L373,1136 Z M417,1181 L387,1181 L396,1208 L426,1208 Z M449,1191 L473,1208 L449,1225 L426,1208 Z M502,1208 L493,1236 L516,1253 L525,1225 Z M502,1208 L473,1208 L464,1236 L493,1236 Z M493,1181 L464,1181 L473,1208 L502,1208 Z M525,1191 L549,1208 L525,1225 L502,1208 Z M554,1225 L525,1225 L534,1253 L563,1253 Z M578,1208 L554,1225 L563,1253 L587,1236 Z M426,1064 L417,1091 L440,1108 L449,1081 Z M426,1064 L396,1064 L387,1091 L417,1091 Z M502,1064 L473,1064 L464,1091 L493,1091 Z M525,1046 L549,1064 L525,1081 L502,1064 Z M601,1046 L578,1064 L587,1091 L610,1074 Z M619,1046 L648,1046 L640,1074 L610,1074 Z M648,1046 L640,1074 L663,1091 L672,1064 Z M672,1064 L701,1064 L692,1091 L663,1091 Z M701,1064 L692,1091 L716,1108 L725,1081 Z M725,1046 L748,1064 L725,1081 L701,1064 Z M748,1064 L777,1064 L786,1091 L757,1091 Z M757,1091 L786,1091 L777,1119 L748,1119 Z M739,1091 L716,1108 L725,1136 L748,1119 Z M757,1036 L786,1036 L777,1064 L748,1064 Z M801,1046 L824,1064 L801,1081 L777,1064 Z M810,1019 L801,1046 L824,1064 L833,1036 Z M833,1036 L862,1036 L853,1064 L824,1064 Z M862,1002 L886,1019 L862,1036 L839,1019 Z M824,974 L801,991 L810,1019 L833,1002 Z M824,974 L853,974 L862,1002 L833,1002 Z M772,991 L748,1008 L757,1036 L781,1019 Z M772,991 L801,991 L810,1019 L781,1019 Z M748,974 L772,991 L748,1008 L725,991 Z M739,946 L716,963 L725,991 L748,974 Z M757,946 L786,946 L777,974 L748,974 Z M786,946 L777,974 L801,991 L810,963 Z M734,1019 L725,1046 L748,1064 L757,1036 Z M696,991 L725,991 L716,1019 L687,1019 Z M687,1019 L663,1036 L672,1064 L696,1046 Z M687,1019 L716,1019 L725,1046 L696,1046 Z M663,1002 L687,1019 L663,1036 L640,1019 Z M610,1019 L640,1019 L648,1046 L619,1046 Z M757,1181 L786,1181 L777,1208 L748,1208 Z M801,1191 L824,1208 L801,1225 L777,1208 Z M833,1181 L862,1181 L853,1208 L824,1208 Z M1118,974 L1109,1002 L1132,1019 L1141,991 Z M1138,946 L1162,963 L1185,946 L1162,929 Z M1118,919 L1147,919 L1138,946 L1109,946 Z M1138,712 L1162,729 L1185,712 L1162,695 Z M1162,695 L1171,667 L1194,684 L1185,712 Z M1109,657 L1138,657 L1147,684 L1118,684 Z M610,81 L639,81 L648,54 L619,54 Z M132,360 L103,360 L112,333 L141,333 Z M141,388 L117,405 L108,377 L132,360 Z M156,377 L165,350 L141,333 L132,360 Z M165,405 L141,388 L117,405 L141,422 Z M174,433 L150,450 L141,422 L165,405 Z M194,405 L165,405 L174,377 L203,377 Z M217,422 L226,395 L203,377 L194,405 Z M203,377 L174,377 L165,350 L194,350 Z M250,377 L226,360 L203,377 L226,395 Z M250,433 L226,450 L217,422 L241,405 Z M270,405 L241,405 L250,377 L279,377 Z M279,433 L250,433 L241,405 L270,405 Z M302,450 L279,433 L255,450 L279,467 Z M302,450 L311,422 L288,405 L279,433 Z M331,450 L302,450 L311,422 L340,422 Z M340,478 L311,478 L302,450 L331,450 Z M378,450 L355,433 L331,450 L355,467 Z M378,450 L387,422 L364,405 L355,433 Z M387,478 L364,495 L355,467 L378,450 Z M411,405 L387,388 L364,405 L387,422 Z M426,450 L396,450 L387,422 L417,422 Z M440,405 L449,377 L426,360 L417,388 Z M449,433 L426,450 L417,422 L440,405 Z M417,388 L387,388 L396,360 L426,360 Z M469,405 L440,405 L449,377 L478,377 Z M493,422 L502,395 L478,377 L469,405 Z M502,360 L473,360 L464,333 L493,333 Z M525,377 L502,360 L478,377 L502,395 Z M525,377 L534,350 L511,333 L502,360 Z M534,350 L511,333 L534,316 L558,333 Z M563,405 L587,388 L578,360 L554,377 Z M563,405 L534,405 L525,377 L554,377 Z M578,360 L549,360 L558,333 L587,333 Z M554,433 L525,433 L534,405 L563,405 Z M525,433 L502,450 L493,422 L516,405 Z M502,450 L473,450 L464,422 L493,422 Z M473,450 L449,433 L426,450 L449,467 Z M511,333 L534,316 L525,288 L502,305 Z M493,333 L464,333 L473,305 L502,305 Z M473,360 L449,377 L440,350 L464,333 Z M464,333 L440,316 L417,333 L440,350 Z M464,333 L473,305 L449,288 L440,316 Z M417,478 L387,478 L396,450 L426,450 Z M355,522 L326,522 L335,495 L364,495 Z M311,478 L288,495 L279,467 L302,450 Z M326,522 L302,505 L279,522 L302,539 Z M326,522 L335,495 L311,478 L302,505 Z M335,550 L311,567 L302,539 L326,522 Z M279,522 L250,522 L241,495 L270,495 Z M270,495 L241,495 L250,467 L279,467 Z M270,550 L241,550 L250,522 L279,522 Z M250,522 L226,505 L203,522 L226,539 Z M241,495 L250,467 L226,450 L217,478 Z M226,505 L203,522 L194,495 L217,478 Z M250,578 L226,595 L217,567 L241,550 Z M217,567 L226,539 L203,522 L194,550 Z M226,595 L197,595 L188,567 L217,567 Z M194,550 L165,550 L174,522 L203,522 Z M188,567 L165,550 L141,567 L165,584 Z M197,595 L174,612 L165,584 L188,567 Z M165,550 L141,567 L132,539 L156,522 Z M141,567 L112,567 L103,539 L132,539 Z M141,567 L112,567 L103,595 L132,595 Z M165,495 L141,478 L117,495 L141,512 Z M165,495 L174,467 L150,450 L141,478 Z M203,522 L174,522 L165,495 L194,495 Z M217,478 L188,478 L197,450 L226,450 Z M226,450 L197,450 L188,422 L217,422 Z M197,450 L174,433 L150,450 L174,467 Z M141,478 L112,478 L103,450 L132,450 Z M132,450 L103,450 L112,422 L141,422 Z M112,478 L88,495 L79,467 L103,450 Z M103,450 L79,433 L56,450 L79,467 Z M103,450 L112,422 L88,405 L79,433 Z M79,522 L88,495 L65,478 L56,505 Z M88,550 L65,567 L56,539 L79,522 Z M56,505 L27,505 L36,478 L65,478 Z M108,522 L79,522 L88,495 L117,495 Z M132,539 L141,512 L117,495 L108,522 Z M36,622 L12,640 L3,612 L27,595 Z M65,567 L36,567 L27,539 L56,539 Z M65,567 L36,567 L27,595 L56,595 Z M88,584 L79,612 L56,595 L65,567 Z M112,567 L88,550 L65,567 L88,584 Z M112,622 L88,640 L79,612 L103,595 Z M141,622 L112,622 L103,595 L132,595 Z M165,640 L141,622 L117,640 L141,657 Z M174,612 L165,640 L141,622 L150,595 Z M203,612 L174,612 L165,640 L194,640 Z M141,657 L112,657 L103,684 L132,684 Z M112,657 L103,684 L79,667 L88,640 Z M88,640 L59,640 L50,612 L79,612 Z M88,640 L59,640 L50,667 L79,667 Z M59,640 L36,622 L12,640 L36,657 Z M36,657 L27,684 L3,667 L12,640 Z M65,712 L36,712 L27,684 L56,684 Z M65,712 L36,712 L27,740 L56,740 Z M88,405 L65,422 L56,395 L79,377 Z M117,405 L88,405 L79,377 L108,377 Z M250,612 L241,640 L217,622 L226,595 Z M279,578 L250,578 L241,550 L270,550 Z M279,612 L250,612 L241,640 L270,640 Z M302,595 L279,578 L255,595 L279,612 Z M302,595 L311,567 L288,550 L279,578 Z M331,595 L302,595 L311,567 L340,567 Z M478,288 L502,271 L493,243 L469,260 Z M478,288 L449,288 L440,260 L469,260 Z M493,243 L464,243 L473,215 L502,215 Z M502,215 L473,215 L464,188 L493,188 Z M464,188 L473,160 L449,143 L440,171 Z M493,188 L464,188 L473,160 L502,160 Z M502,160 L478,143 L502,126 L525,143 Z M739,333 L748,305 L725,288 L716,316 Z M672,450 L696,433 L687,405 L663,422 Z M748,740 L772,757 L748,774 L725,757 Z M748,740 L777,740 L786,712 L757,712 Z M563,550 L534,550 L525,522 L554,522 Z " fill="rgb(221, 234, 246)"/>
</g></svg>